<svg viewBox="0 0 16 16" fill="none" xmlns="http://www.w3.org/2000/svg">
<path fill="currentColor" stroke="currentColor" stroke-width="0.49" fill-rule="evenodd" clip-rule="evenodd" d="M12.5 8.00001C12.5 5.68346 10.7495 3.77574 8.49918 3.52738C8.2247 3.49709 7.99998 3.27615 7.99998 3.00001C7.99998 2.72387 8.22458 2.49763 8.4996 2.5224C11.303 2.77484 13.5 5.13086 13.5 8.00001C13.5 11.0376 11.0375 13.5 7.99998 13.5C5.13083 13.5 2.7748 11.3031 2.52237 8.49964C2.4976 8.22461 2.72384 8.00001 2.99998 8.00001C3.27612 8.00001 3.49706 8.22473 3.52735 8.49921C3.77571 10.7496 5.68343 12.5 7.99998 12.5C10.4853 12.5 12.5 10.4853 12.5 8.00001Z" />
</svg>
