<svg viewBox="0 0 16 16" fill="none" xmlns="http://www.w3.org/2000/svg">
<path d="M1.69255 15.2762H7.52366C8.45787 15.2762 9.22262 14.5289 9.22262 13.5947V12.0478C9.22262 11.8305 9.04881 11.6567 8.83155 11.6567C8.6143 11.6567 8.44049 11.8305 8.44049 12.0478V13.5947C8.44049 14.0987 8.02769 14.4941 7.52367 14.4941H1.69256C1.18851 14.4941 0.793106 14.0987 0.793106 13.5947V2.35832C0.793106 1.85426 1.18851 1.45886 1.69256 1.45886H7.52367C8.02773 1.45886 8.44049 1.85427 8.44049 2.35832V3.87477C8.44049 4.09203 8.6143 4.26583 8.83155 4.26583C9.04881 4.26583 9.22262 4.09203 9.22262 3.87477V2.35832C9.22262 1.4241 8.45787 0.676758 7.52366 0.676758H1.69255C0.758328 0.676758 0.0109863 1.4241 0.0109863 2.35832V13.5947C0.0109863 14.5289 0.758328 15.2762 1.69255 15.2762Z" fill="currentColor"/>
<path d="M12.5021 11.5609C12.576 11.6261 12.6672 11.6565 12.7585 11.6565C12.8671 11.6565 12.9757 11.6087 13.054 11.5218L15.8696 8.28031C15.9565 8.20644 16.013 8.09781 16.013 7.97615C16.013 7.8458 15.9478 7.72847 15.8479 7.65895L13.0366 4.84764C12.8845 4.69556 12.6368 4.69556 12.4847 4.84764C12.3326 4.99972 12.3326 5.24737 12.4847 5.39949L14.6703 7.5851H4.28096C4.0637 7.5851 3.88989 7.75891 3.88989 7.97616C3.88989 8.19342 4.0637 8.36723 4.28096 8.36723H14.7569L12.467 11.0091C12.3236 11.1698 12.341 11.4175 12.5018 11.5609L12.5021 11.5609Z" fill="currentColor"/>
</svg>
